@startuml ISystemState_MobileHoming

interface IBaseEvent {
}

package Events {

interface IMobileEvents {
  + OnHomingFinished()
  + OnHomingCanceled()
}

}

package ViewEvents {

interface IContextViewEvents {
  + OnContextButtonShutdownClicked()
}

}

interface ISystemState {
  + OnEnter() : void
  + OnExit() : void
  __
  <i><color:Gray>Base state interface</color></i>
  <i><color:Gray>Inherits from relevant event interfaces</color></i>
}

' Show inheritance
IMobileEvents -up-|> IBaseEvent
IContextViewEvents -up-|> IBaseEvent

ISystemState -up-|> IMobileEvents
ISystemState -up-|> IContextViewEvents

@enduml
